<?xml version="1.0" encoding="UTF-8"?>
<svg width="1122px" height="808px" viewBox="0 0 1122 808" version="1.1" xmlns="http://www.w3.org/2000/svg" xmlns:xlink="http://www.w3.org/1999/xlink">
    <!-- Generator: Sketch 49.3 (51167) - http://www.bohemiancoding.com/sketch -->
    <title>flower</title>
    <desc>Created with Sketch.</desc>
    <defs></defs>
    <g id="Page-1" stroke="none" stroke-width="1" fill="none" fill-rule="evenodd">
        <g id="flower" transform="translate(1.000000, 1.000000)" stroke="#F470D2" stroke-width="1.2">
            <path d="M106.558444,660.38569 C-23.0671445,501.637445 -9.25312154,472.782716 18.589487,372.480461 C54.2514569,244.009165 105.276968,124.564527 227.616496,46.7697655 C290.715479,6.64560927 381.892455,1.98889181 453.570772,0.463279837 C615.732189,-2.98818795 743.985746,10.6515842 866.31369,116.923934 C927.60086,170.167137 987.626885,224.672016 1047.0788,279.691073 C1067.10955,298.22828 1100.93457,326.336771 1112.60054,355.455996 C1124.9486,386.277734 1118.1829,474.054175 1117.87854,478.229736 C1112.46847,552.452353 1069.88263,600.977587 1018.45222,654.325378 C791.841415,889.384499 236.184033,819.133935 106.558444,660.38569 Z M210.686487,171.518684 C273.81596,143.53271 349.153344,131.885778 418.541691,129.45402 C528.304196,125.607324 624.71562,108.057838 716.774982,163.80604 C827.729857,230.996761 943.104802,317.203778 969.814994,446.350621 C975.42262,473.464134 1049.80085,685.943628 719.028293,756.236444 C388.255738,826.529261 152.329768,635.979539 79.6471534,613.213431 C6.96453911,590.447324 23.9610944,532.105098 16.3850326,507.349904 C8.80897086,482.594711 39.321675,327.771829 79.6471534,266.777663 C119.972632,205.783497 168.683692,190.138975 210.686487,171.518684 Z M326.354077,255.640262 C386.551947,230.058164 578.398114,218.791827 698.846644,254.937841 C806.658329,287.291599 873.07772,375.856229 881.928203,472.451759 C889.749952,557.81953 895.972998,591.868321 816.93991,640.84352 C767.899273,671.233008 704.980218,672.086502 648.1219,678.734824 C626.806737,681.22716 401.057833,727.253848 332.282364,698.378951 C293.468175,682.083086 256.762426,661.985586 220.536377,641.545942 C117.941846,583.659538 52.4264866,483.086595 114.335345,384.041348 C176.244203,284.996102 266.156208,281.222361 326.354077,255.640262 Z M236.322273,388.572023 C228.885562,287.638612 407.3034,193.786187 504.257416,234.286638 C641.938055,291.799758 725.379526,412.079106 736.81496,550.580355 C745.784416,659.214698 662.105354,698.124796 558.445499,714.687056 C542.148311,717.290941 486.61625,717.83751 473.40043,714.687056 C382.583733,693.037717 295.088029,634.623095 261.513092,560.983793 C250.064345,535.873462 241.667405,478.402872 236.322273,388.572023 Z M298.8622,373.553951 C304.789743,366.273536 376.758814,298.585178 469.977179,307.142611 C563.195544,315.700045 555.592107,399.894266 563.990169,431.198741 C587.16267,517.576159 560.114525,610.429817 453.438405,618.331453 C401.411571,622.185146 384.393716,625.37288 344.384013,601.507877 C295.31979,572.242032 302.747517,512.323854 281.291339,469.828319 C259.83516,427.332783 292.934657,380.834365 298.8622,373.553951 Z M512.231059,367.84132 C571.998361,388.255113 621.781239,458.942351 605.516911,514.583994 C586.545034,579.488387 494.018113,602.345129 437.003263,571.453592 C380.145257,540.647035 352.924368,478.714555 342.964287,421.90732 C333.004207,365.100084 378.083404,322.022578 512.231059,367.84132 Z M500.017792,398.36081 C542.741782,398.36081 542.483324,442.728265 531.523507,480.250721 C518.739193,524.019599 487.744887,556.500623 449.325084,535.668629 C411.010971,514.893942 412.597863,488.968817 405.886202,450.660332 C399.174542,412.351848 418.105524,398.36081 500.017792,398.36081 Z" id="Path"></path>
        </g>
    </g>
</svg>